<?xml version="1.0" encoding="UTF-8" standalone="no"?>
<!-- Created with Inkscape (http://www.inkscape.org/) -->

<svg
   width="114.26279mm"
   height="18.033009mm"
   viewBox="0 0 114.26279 18.033009"
   version="1.1"
   id="svg5"
   inkscape:version="1.2.2 (b0a8486541, 2022-12-01)"
   sodipodi:docname="TeamHere.svg"
   xmlns:inkscape="http://www.inkscape.org/namespaces/inkscape"
   xmlns:sodipodi="http://sodipodi.sourceforge.net/DTD/sodipodi-0.dtd"
   xmlns="http://www.w3.org/2000/svg"
   xmlns:svg="http://www.w3.org/2000/svg">
  <sodipodi:namedview
     id="namedview7"
     pagecolor="#ffffff"
     bordercolor="#999999"
     borderopacity="1"
     inkscape:showpageshadow="0"
     inkscape:pageopacity="0"
     inkscape:pagecheckerboard="0"
     inkscape:deskcolor="#d1d1d1"
     inkscape:document-units="mm"
     showgrid="false"
     inkscape:zoom="1.5055415"
     inkscape:cx="219.19023"
     inkscape:cy="75.720263"
     inkscape:window-width="1920"
     inkscape:window-height="1011"
     inkscape:window-x="0"
     inkscape:window-y="32"
     inkscape:window-maximized="1"
     inkscape:current-layer="layer1" />
  <defs
     id="defs2" />
  <g
     inkscape:label="Warstwa 1"
     inkscape:groupmode="layer"
     id="layer1"
     transform="translate(-22.504967,-48.051869)">
    <g
       aria-label="TeamHere"
       id="text236"
       style="font-size:25.4px;font-family:Impact;-inkscape-font-specification:Impact;fill:#4c4c4c;stroke-width:0.765">
      <path
         d="m 31.397447,65.83683 h -3.54707 V 51.611342 h -5.34541 v -3.559473 h 14.225488 v 3.559473 h -5.333008 z"
         style="fill:#2b2b2b"
         id="path1210" />
      <path
         d="m 41.455748,62.587416 q 0.198438,0.06201 0.396875,0.08682 0.198438,0.0124 0.396875,0.0124 0.496094,0 0.954981,-0.136426 0.458887,-0.136426 0.855762,-0.384473 0.409277,-0.260449 0.719336,-0.620117 0.32246,-0.37207 0.520898,-0.818554 l 2.480469,2.492871 q -0.471289,0.669726 -1.091407,1.203027 -0.607714,0.533301 -1.32705,0.905371 -0.706934,0.37207 -1.500684,0.558106 -0.781348,0.198437 -1.612305,0.198437 -1.401464,0 -2.641699,-0.520898 -1.227832,-0.520899 -2.158008,-1.451075 -0.917773,-0.930175 -1.451074,-2.207617 -0.5333,-1.289844 -0.5333,-2.827734 0,-1.575098 0.5333,-2.877344 0.533301,-1.302246 1.451074,-2.220019 0.930176,-0.917774 2.158008,-1.42627 1.240235,-0.508496 2.641699,-0.508496 0.830957,0 1.624707,0.198438 0.79375,0.198437 1.500684,0.570507 0.719336,0.372071 1.339453,0.917774 0.620117,0.533301 1.091406,1.203027 z m 1.736329,-6.982519 q -0.235645,-0.08682 -0.471289,-0.111621 -0.223243,-0.02481 -0.47129,-0.02481 -0.694531,0 -1.314648,0.260449 -0.607715,0.248047 -1.066602,0.719336 -0.446484,0.471289 -0.706933,1.141016 -0.260449,0.657324 -0.260449,1.488281 0,0.186035 0.0124,0.42168 0.02481,0.235644 0.06201,0.483691 0.04961,0.235645 0.111621,0.458887 0.06201,0.223242 0.16123,0.396875 z"
         style="fill:#2b2b2b"
         id="path1212" />
      <path
         d="m 62.266879,65.83683 h -0.818555 l -1.314648,-1.823144 q -0.483692,0.434082 -1.029395,0.818554 -0.533301,0.372071 -1.128613,0.657325 -0.595313,0.272851 -1.227832,0.434082 -0.620117,0.16123 -1.265039,0.16123 -1.401465,0 -2.641699,-0.471289 -1.227832,-0.471289 -2.158008,-1.364258 -0.917774,-0.905371 -1.451074,-2.207617 -0.533301,-1.302246 -0.533301,-2.96416 0,-1.550293 0.533301,-2.840137 0.5333,-1.302246 1.451074,-2.232422 0.930176,-0.930175 2.158008,-1.438671 1.240234,-0.520899 2.641699,-0.520899 0.644922,0 1.277441,0.161231 0.63252,0.16123 1.227832,0.446484 0.595313,0.285254 1.128613,0.669726 0.545704,0.384473 1.016993,0.830958 l 1.314648,-1.575098 h 0.818555 z m -3.410645,-6.759277 q 0,-0.694531 -0.272851,-1.339453 -0.26045,-0.657324 -0.719336,-1.153418 -0.458887,-0.508496 -1.079004,-0.806152 -0.607715,-0.310059 -1.302246,-0.310059 -0.694531,0 -1.314649,0.235644 -0.607715,0.235645 -1.066601,0.694532 -0.446485,0.458886 -0.706934,1.141015 -0.260449,0.669727 -0.260449,1.537891 0,0.868164 0.260449,1.550293 0.260449,0.669726 0.706934,1.128613 0.458886,0.458887 1.066601,0.694531 0.620118,0.235645 1.314649,0.235645 0.694531,0 1.302246,-0.297656 0.620117,-0.310059 1.079004,-0.806153 0.458886,-0.508496 0.719336,-1.153418 0.272851,-0.657324 0.272851,-1.351855 z"
         style="fill:#2b2b2b"
         id="path1214" />
      <path
         d="m 81.738562,65.83683 h -3.373437 v -8.433593 q 0,-0.347266 -0.136426,-0.657325 -0.124024,-0.310058 -0.359668,-0.545703 -0.235645,-0.235644 -0.545703,-0.359668 -0.310059,-0.136426 -0.657324,-0.136426 -0.347266,0 -0.657325,0.136426 -0.297656,0.124024 -0.5333,0.359668 -0.223243,0.235645 -0.359668,0.545703 -0.124024,0.310059 -0.124024,0.657325 v 8.433593 h -3.38584 v -8.433593 q 0,-0.347266 -0.136425,-0.657325 -0.124024,-0.310058 -0.359668,-0.545703 -0.235645,-0.235644 -0.545703,-0.359668 -0.310059,-0.136426 -0.657325,-0.136426 -0.347265,0 -0.657324,0.136426 -0.297656,0.124024 -0.533301,0.359668 -0.223242,0.235645 -0.359668,0.545703 -0.124023,0.310059 -0.124023,0.657325 V 65.83683 H 64.84657 V 52.55392 h 0.818555 l 0.917773,1.016992 q 0.706934,-0.595312 1.550293,-0.917773 0.855762,-0.334863 1.773535,-0.334863 0.930176,0 1.810743,0.347265 0.892968,0.347266 1.562695,1.203028 0.310058,-0.42168 0.706933,-0.719336 0.396875,-0.297657 0.830957,-0.483692 0.446485,-0.186035 0.917774,-0.260449 0.471289,-0.08682 0.930176,-0.08682 1.054199,0 1.971972,0.396875 0.930176,0.396875 1.612305,1.091406 0.694531,0.682129 1.091406,1.612305 0.396875,0.930175 0.396875,1.984375 z"
         style="fill:#2b2b2b"
         id="path1216" />
      <path
         d="M 88.125765,65.83683 H 84.566292 V 48.051869 h 3.559473 v 7.118946 h 7.106543 V 48.051869 H 98.79178 V 65.83683 h -3.559472 v -7.106543 h -7.106543 z"
         style="font-family:Righteous;-inkscape-font-specification:Righteous;fill:#1affa7"
         id="path1218" />
      <path
         d="m 106.8161,62.587416 q 0.19843,0.06201 0.39687,0.08682 0.19844,0.0124 0.39688,0.0124 0.49609,0 0.95498,-0.136426 0.45888,-0.136426 0.85576,-0.384473 0.40927,-0.260449 0.71933,-0.620117 0.32246,-0.37207 0.5209,-0.818554 l 2.48047,2.492871 q -0.47129,0.669726 -1.09141,1.203027 -0.60771,0.533301 -1.32705,0.905371 -0.70693,0.37207 -1.50068,0.558106 -0.78135,0.198437 -1.6123,0.198437 -1.40147,0 -2.6417,-0.520898 -1.22784,-0.520899 -2.15801,-1.451075 -0.91778,-0.930175 -1.45108,-2.207617 -0.5333,-1.289844 -0.5333,-2.827734 0,-1.575098 0.5333,-2.877344 0.5333,-1.302246 1.45108,-2.220019 0.93017,-0.917774 2.15801,-1.42627 1.24023,-0.508496 2.6417,-0.508496 0.83095,0 1.6247,0.198438 0.79375,0.198437 1.50069,0.570507 0.71933,0.372071 1.33945,0.917774 0.62012,0.533301 1.09141,1.203027 z m 1.73632,-6.982519 q -0.23564,-0.08682 -0.47129,-0.111621 -0.22324,-0.02481 -0.47128,-0.02481 -0.69454,0 -1.31465,0.260449 -0.60772,0.248047 -1.0666,0.719336 -0.44649,0.471289 -0.70694,1.141016 -0.26045,0.657324 -0.26045,1.488281 0,0.186035 0.0124,0.42168 0.0248,0.235644 0.062,0.483691 0.0496,0.235645 0.11162,0.458887 0.062,0.223242 0.16123,0.396875 z"
         style="font-family:Righteous;-inkscape-font-specification:Righteous;fill:#1affa7"
         id="path1220" />
      <path
         d="m 118.25106,65.83683 h -3.38584 V 52.55392 h 0.81855 l 1.11621,1.575098 q 0.81856,-0.744141 1.86035,-1.141016 1.0418,-0.409277 2.15801,-0.409277 h 2.98897 v 3.373437 h -2.98897 q -0.5333,0 -1.00459,0.198438 -0.47129,0.198437 -0.81855,0.545703 -0.34727,0.347266 -0.54571,0.818555 -0.19843,0.471289 -0.19843,1.004589 z"
         style="font-family:Righteous;-inkscape-font-specification:Righteous;fill:#1affa7"
         id="path1222" />
      <path
         d="m 130.41776,62.587416 q 0.19843,0.06201 0.39687,0.08682 0.19844,0.0124 0.39688,0.0124 0.49609,0 0.95498,-0.136426 0.45888,-0.136426 0.85576,-0.384473 0.40928,-0.260449 0.71934,-0.620117 0.32246,-0.37207 0.52089,-0.818554 l 2.48047,2.492871 q -0.47129,0.669726 -1.0914,1.203027 -0.60772,0.533301 -1.32705,0.905371 -0.70694,0.37207 -1.50069,0.558106 -0.78135,0.198437 -1.6123,0.198437 -1.40147,0 -2.6417,-0.520898 -1.22783,-0.520899 -2.15801,-1.451075 -0.91777,-0.930175 -1.45107,-2.207617 -0.53331,-1.289844 -0.53331,-2.827734 0,-1.575098 0.53331,-2.877344 0.5333,-1.302246 1.45107,-2.220019 0.93018,-0.917774 2.15801,-1.42627 1.24023,-0.508496 2.6417,-0.508496 0.83095,0 1.6247,0.198438 0.79375,0.198437 1.50069,0.570507 0.71933,0.372071 1.33945,0.917774 0.62012,0.533301 1.09141,1.203027 z m 1.73633,-6.982519 q -0.23565,-0.08682 -0.47129,-0.111621 -0.22325,-0.02481 -0.47129,-0.02481 -0.69453,0 -1.31465,0.260449 -0.60772,0.248047 -1.0666,0.719336 -0.44649,0.471289 -0.70694,1.141016 -0.26045,0.657324 -0.26045,1.488281 0,0.186035 0.0124,0.42168 0.0248,0.235644 0.062,0.483691 0.0496,0.235645 0.11162,0.458887 0.062,0.223242 0.16123,0.396875 z"
         style="font-family:Righteous;-inkscape-font-specification:Righteous;fill:#1affa7"
         id="path1224" />
    </g>
  </g>
</svg>
